<mxfile host="app.diagrams.net" modified="2024-05-19T08:16:12.091Z" agent="Mozilla/5.0 (Windows NT 10.0; Win64; x64) AppleWebKit/537.36 (KHTML, like Gecko) Chrome/127.0.0.0 Safari/537.36" etag="tLgiQTm53pxu2WTbktUS" version="24.2.5" type="github">
  <diagram name="Seite-1" id="QoW2WP4sF9XE3s1ogHSI">
    <mxGraphModel dx="954" dy="721" grid="1" gridSize="10" guides="1" tooltips="1" connect="1" arrows="1" fold="1" page="1" pageScale="1" pageWidth="1654" pageHeight="1169" math="0" shadow="0">
      <root>
        <mxCell id="0" />
        <mxCell id="1" parent="0" />
        <mxCell id="m5U6jbmUyWmy_Dcwf7JY-30" value="&lt;font style=&quot;font-size: 16px;&quot;&gt;&lt;b&gt;CM4 IOBoard&lt;/b&gt;&lt;/font&gt;" style="rounded=1;absoluteArcSize=1;html=1;arcSize=10;align=center;verticalAlign=middle;" parent="1" vertex="1">
          <mxGeometry x="500" y="700" width="840" height="540" as="geometry" />
        </mxCell>
        <mxCell id="m5U6jbmUyWmy_Dcwf7JY-31" value="CM4 IO Board" style="html=1;shape=mxgraph.er.anchor;whiteSpace=wrap;" parent="m5U6jbmUyWmy_Dcwf7JY-30" vertex="1">
          <mxGeometry width="420.00000000000006" height="540" as="geometry" />
        </mxCell>
        <mxCell id="m5U6jbmUyWmy_Dcwf7JY-9" value="HDMI0" style="rounded=1;absoluteArcSize=1;html=1;arcSize=10;whiteSpace=wrap;points=[];strokeColor=inherit;fillColor=inherit;" parent="m5U6jbmUyWmy_Dcwf7JY-30" vertex="1">
          <mxGeometry x="47" y="490" width="70" height="20" as="geometry" />
        </mxCell>
        <mxCell id="m5U6jbmUyWmy_Dcwf7JY-10" value="HDMI1" style="rounded=1;absoluteArcSize=1;html=1;arcSize=10;whiteSpace=wrap;points=[];strokeColor=inherit;fillColor=inherit;" parent="m5U6jbmUyWmy_Dcwf7JY-30" vertex="1">
          <mxGeometry x="147" y="490" width="70" height="20" as="geometry" />
        </mxCell>
        <mxCell id="m5U6jbmUyWmy_Dcwf7JY-11" value="Ethernet" style="rounded=1;absoluteArcSize=1;html=1;arcSize=10;whiteSpace=wrap;points=[];strokeColor=inherit;fillColor=inherit;" parent="m5U6jbmUyWmy_Dcwf7JY-30" vertex="1">
          <mxGeometry x="247.44000000000005" y="450" width="59.56" height="60" as="geometry" />
        </mxCell>
        <mxCell id="m5U6jbmUyWmy_Dcwf7JY-12" value="USB2.0 0" style="rounded=1;absoluteArcSize=1;html=1;arcSize=10;whiteSpace=wrap;points=[];strokeColor=inherit;fillColor=inherit;" parent="m5U6jbmUyWmy_Dcwf7JY-30" vertex="1">
          <mxGeometry x="337" y="440" width="70" height="30" as="geometry" />
        </mxCell>
        <mxCell id="m5U6jbmUyWmy_Dcwf7JY-13" value="USB2.0 1" style="rounded=1;absoluteArcSize=1;html=1;arcSize=10;whiteSpace=wrap;points=[];strokeColor=inherit;fillColor=inherit;" parent="m5U6jbmUyWmy_Dcwf7JY-30" vertex="1">
          <mxGeometry x="337" y="480" width="70" height="30" as="geometry" />
        </mxCell>
        <mxCell id="m5U6jbmUyWmy_Dcwf7JY-14" value="External USB2.0" style="rounded=1;absoluteArcSize=1;html=1;arcSize=10;whiteSpace=wrap;points=[];strokeColor=inherit;fillColor=inherit;rotation=90;" parent="m5U6jbmUyWmy_Dcwf7JY-30" vertex="1">
          <mxGeometry x="437" y="425" width="70" height="30" as="geometry" />
        </mxCell>
        <mxCell id="m5U6jbmUyWmy_Dcwf7JY-15" value="µUSB" style="rounded=1;absoluteArcSize=1;html=1;arcSize=10;whiteSpace=wrap;points=[];strokeColor=inherit;fillColor=inherit;" parent="m5U6jbmUyWmy_Dcwf7JY-30" vertex="1">
          <mxGeometry x="437" y="495" width="50" height="15" as="geometry" />
        </mxCell>
        <mxCell id="m5U6jbmUyWmy_Dcwf7JY-16" value="µSD" style="rounded=1;absoluteArcSize=1;html=1;arcSize=10;whiteSpace=wrap;points=[];strokeColor=inherit;fillColor=inherit;" parent="m5U6jbmUyWmy_Dcwf7JY-30" vertex="1">
          <mxGeometry x="527" y="420" width="70" height="90" as="geometry" />
        </mxCell>
        <mxCell id="m5U6jbmUyWmy_Dcwf7JY-17" value="DC Power Jack" style="rounded=1;absoluteArcSize=1;html=1;arcSize=10;whiteSpace=wrap;points=[];strokeColor=inherit;fillColor=inherit;" parent="m5U6jbmUyWmy_Dcwf7JY-30" vertex="1">
          <mxGeometry x="747" y="440" width="70" height="70" as="geometry" />
        </mxCell>
        <mxCell id="m5U6jbmUyWmy_Dcwf7JY-19" value="CAM1" style="rounded=1;absoluteArcSize=1;html=1;arcSize=10;whiteSpace=wrap;points=[];strokeColor=inherit;fillColor=inherit;rotation=0;" parent="m5U6jbmUyWmy_Dcwf7JY-30" vertex="1">
          <mxGeometry x="47" y="30" width="50" height="10" as="geometry" />
        </mxCell>
        <mxCell id="m5U6jbmUyWmy_Dcwf7JY-20" value="DISP0" style="rounded=1;absoluteArcSize=1;html=1;arcSize=10;whiteSpace=wrap;points=[];strokeColor=inherit;fillColor=inherit;rotation=0;" parent="m5U6jbmUyWmy_Dcwf7JY-30" vertex="1">
          <mxGeometry x="107" y="30" width="50" height="10" as="geometry" />
        </mxCell>
        <mxCell id="m5U6jbmUyWmy_Dcwf7JY-22" value="DISP1" style="rounded=1;absoluteArcSize=1;html=1;arcSize=10;whiteSpace=wrap;points=[];strokeColor=inherit;fillColor=inherit;rotation=0;" parent="m5U6jbmUyWmy_Dcwf7JY-30" vertex="1">
          <mxGeometry x="167" y="30" width="50" height="10" as="geometry" />
        </mxCell>
        <mxCell id="m5U6jbmUyWmy_Dcwf7JY-23" value="CAM0" style="rounded=1;absoluteArcSize=1;html=1;arcSize=10;whiteSpace=wrap;points=[];strokeColor=inherit;fillColor=inherit;rotation=90;" parent="m5U6jbmUyWmy_Dcwf7JY-30" vertex="1">
          <mxGeometry x="17" y="110" width="50" height="10" as="geometry" />
        </mxCell>
        <mxCell id="m5U6jbmUyWmy_Dcwf7JY-24" value="Jumpers" style="rounded=1;absoluteArcSize=1;html=1;arcSize=10;whiteSpace=wrap;points=[];strokeColor=inherit;fillColor=inherit;rotation=0;" parent="m5U6jbmUyWmy_Dcwf7JY-30" vertex="1">
          <mxGeometry x="227" y="30" width="60" height="20" as="geometry" />
        </mxCell>
        <mxCell id="m5U6jbmUyWmy_Dcwf7JY-25" value="ext PSU" style="rounded=1;absoluteArcSize=1;html=1;arcSize=10;whiteSpace=wrap;points=[];strokeColor=inherit;fillColor=inherit;rotation=0;" parent="m5U6jbmUyWmy_Dcwf7JY-30" vertex="1">
          <mxGeometry x="657" y="30" width="60" height="70" as="geometry" />
        </mxCell>
        <mxCell id="m5U6jbmUyWmy_Dcwf7JY-26" value="FAN" style="rounded=1;absoluteArcSize=1;html=1;arcSize=10;whiteSpace=wrap;points=[];strokeColor=inherit;fillColor=inherit;rotation=0;" parent="m5U6jbmUyWmy_Dcwf7JY-30" vertex="1">
          <mxGeometry x="737" y="30" width="70" height="30" as="geometry" />
        </mxCell>
        <mxCell id="m5U6jbmUyWmy_Dcwf7JY-27" value="PCIe2.0 x1" style="rounded=1;absoluteArcSize=1;html=1;arcSize=10;whiteSpace=wrap;points=[];strokeColor=inherit;fillColor=inherit;rotation=-90;" parent="m5U6jbmUyWmy_Dcwf7JY-30" vertex="1">
          <mxGeometry x="567" y="156.5" width="120" height="40" as="geometry" />
        </mxCell>
        <mxCell id="m5U6jbmUyWmy_Dcwf7JY-28" value="GPIO" style="rounded=1;absoluteArcSize=1;html=1;arcSize=10;whiteSpace=wrap;points=[];strokeColor=inherit;fillColor=inherit;rotation=0;" parent="m5U6jbmUyWmy_Dcwf7JY-30" vertex="1">
          <mxGeometry x="57" y="250" width="210" height="40" as="geometry" />
        </mxCell>
        <mxCell id="m5U6jbmUyWmy_Dcwf7JY-29" value="J CAM1&lt;br&gt;J DISP1" style="rounded=1;absoluteArcSize=1;html=1;arcSize=10;whiteSpace=wrap;points=[];strokeColor=inherit;fillColor=inherit;rotation=0;" parent="m5U6jbmUyWmy_Dcwf7JY-30" vertex="1">
          <mxGeometry x="197.44000000000005" y="210" width="50" height="30" as="geometry" />
        </mxCell>
        <mxCell id="m5U6jbmUyWmy_Dcwf7JY-5" value="CM4" style="rounded=1;absoluteArcSize=1;html=1;arcSize=10;whiteSpace=wrap;points=[];fillOpacity=50;" parent="m5U6jbmUyWmy_Dcwf7JY-30" vertex="1">
          <mxGeometry x="299.9999999999999" y="30" width="240.88" height="293" as="geometry" />
        </mxCell>
        <mxCell id="m5U6jbmUyWmy_Dcwf7JY-33" value="GPIO" style="shape=table;startSize=20;container=1;collapsible=1;childLayout=tableLayout;fixedRows=1;rowLines=0;fontStyle=1;align=center;resizeLast=1;html=1;aspect=fixed;fontSize=12;" parent="1" vertex="1">
          <mxGeometry x="280" y="20" width="360" height="650" as="geometry" />
        </mxCell>
        <mxCell id="m5U6jbmUyWmy_Dcwf7JY-34" value="" style="shape=tableRow;horizontal=0;startSize=0;swimlaneHead=0;swimlaneBody=0;fillColor=none;collapsible=0;dropTarget=0;points=[[0,0.5],[1,0.5]];portConstraint=eastwest;top=0;left=0;right=0;bottom=1;" parent="m5U6jbmUyWmy_Dcwf7JY-33" vertex="1">
          <mxGeometry y="20" width="360" height="30" as="geometry" />
        </mxCell>
        <mxCell id="m5U6jbmUyWmy_Dcwf7JY-35" value="PIN" style="shape=partialRectangle;connectable=0;fillColor=none;top=0;left=0;bottom=0;right=0;fontStyle=1;overflow=hidden;whiteSpace=wrap;html=1;" parent="m5U6jbmUyWmy_Dcwf7JY-34" vertex="1">
          <mxGeometry width="30" height="30" as="geometry">
            <mxRectangle width="30" height="30" as="alternateBounds" />
          </mxGeometry>
        </mxCell>
        <mxCell id="m5U6jbmUyWmy_Dcwf7JY-36" value="Func" style="shape=partialRectangle;connectable=0;fillColor=none;top=0;left=0;bottom=0;right=0;align=right;spacingLeft=6;fontStyle=5;overflow=hidden;whiteSpace=wrap;html=1;" parent="m5U6jbmUyWmy_Dcwf7JY-34" vertex="1">
          <mxGeometry x="30" width="150" height="30" as="geometry">
            <mxRectangle width="150" height="30" as="alternateBounds" />
          </mxGeometry>
        </mxCell>
        <mxCell id="m5U6jbmUyWmy_Dcwf7JY-141" value="tion" style="shape=partialRectangle;connectable=0;fillColor=none;top=0;left=0;bottom=0;right=0;align=left;spacingLeft=0;fontStyle=5;overflow=hidden;whiteSpace=wrap;html=1;" parent="m5U6jbmUyWmy_Dcwf7JY-34" vertex="1">
          <mxGeometry x="180" width="150" height="30" as="geometry">
            <mxRectangle width="150" height="30" as="alternateBounds" />
          </mxGeometry>
        </mxCell>
        <mxCell id="m5U6jbmUyWmy_Dcwf7JY-124" value="PIN" style="shape=partialRectangle;connectable=0;fillColor=none;top=0;left=0;bottom=0;right=0;fontStyle=1;overflow=hidden;whiteSpace=wrap;html=1;" parent="m5U6jbmUyWmy_Dcwf7JY-34" vertex="1">
          <mxGeometry x="330" width="30" height="30" as="geometry">
            <mxRectangle width="30" height="30" as="alternateBounds" />
          </mxGeometry>
        </mxCell>
        <mxCell id="m5U6jbmUyWmy_Dcwf7JY-37" value="" style="shape=tableRow;horizontal=0;startSize=0;swimlaneHead=0;swimlaneBody=0;fillColor=none;collapsible=0;dropTarget=0;points=[[0,0.5],[1,0.5]];portConstraint=eastwest;top=0;left=0;right=0;bottom=0;" parent="m5U6jbmUyWmy_Dcwf7JY-33" vertex="1">
          <mxGeometry y="50" width="360" height="30" as="geometry" />
        </mxCell>
        <mxCell id="m5U6jbmUyWmy_Dcwf7JY-38" value="1" style="shape=partialRectangle;connectable=0;fillColor=none;top=0;left=0;bottom=0;right=0;editable=1;overflow=hidden;whiteSpace=wrap;html=1;" parent="m5U6jbmUyWmy_Dcwf7JY-37" vertex="1">
          <mxGeometry width="30" height="30" as="geometry">
            <mxRectangle width="30" height="30" as="alternateBounds" />
          </mxGeometry>
        </mxCell>
        <mxCell id="m5U6jbmUyWmy_Dcwf7JY-39" value="3v3" style="shape=partialRectangle;connectable=0;fillColor=none;top=0;left=0;bottom=0;right=0;align=left;spacingLeft=6;overflow=hidden;whiteSpace=wrap;html=1;" parent="m5U6jbmUyWmy_Dcwf7JY-37" vertex="1">
          <mxGeometry x="30" width="150" height="30" as="geometry">
            <mxRectangle width="150" height="30" as="alternateBounds" />
          </mxGeometry>
        </mxCell>
        <mxCell id="m5U6jbmUyWmy_Dcwf7JY-142" value="5v" style="shape=partialRectangle;connectable=0;fillColor=none;top=0;left=0;bottom=0;right=0;align=right;spacingLeft=6;overflow=hidden;whiteSpace=wrap;html=1;" parent="m5U6jbmUyWmy_Dcwf7JY-37" vertex="1">
          <mxGeometry x="180" width="150" height="30" as="geometry">
            <mxRectangle width="150" height="30" as="alternateBounds" />
          </mxGeometry>
        </mxCell>
        <mxCell id="m5U6jbmUyWmy_Dcwf7JY-125" value="2" style="shape=partialRectangle;connectable=0;fillColor=none;top=0;left=0;bottom=0;right=0;align=center;spacingLeft=6;overflow=hidden;whiteSpace=wrap;html=1;" parent="m5U6jbmUyWmy_Dcwf7JY-37" vertex="1">
          <mxGeometry x="330" width="30" height="30" as="geometry">
            <mxRectangle width="30" height="30" as="alternateBounds" />
          </mxGeometry>
        </mxCell>
        <mxCell id="m5U6jbmUyWmy_Dcwf7JY-40" value="" style="shape=tableRow;horizontal=0;startSize=0;swimlaneHead=0;swimlaneBody=0;fillColor=none;collapsible=0;dropTarget=0;points=[[0,0.5],[1,0.5]];portConstraint=eastwest;top=0;left=0;right=0;bottom=0;" parent="m5U6jbmUyWmy_Dcwf7JY-33" vertex="1">
          <mxGeometry y="80" width="360" height="30" as="geometry" />
        </mxCell>
        <mxCell id="m5U6jbmUyWmy_Dcwf7JY-41" value="3" style="shape=partialRectangle;connectable=0;fillColor=none;top=0;left=0;bottom=0;right=0;editable=1;overflow=hidden;whiteSpace=wrap;html=1;" parent="m5U6jbmUyWmy_Dcwf7JY-40" vertex="1">
          <mxGeometry width="30" height="30" as="geometry">
            <mxRectangle width="30" height="30" as="alternateBounds" />
          </mxGeometry>
        </mxCell>
        <mxCell id="m5U6jbmUyWmy_Dcwf7JY-42" value="GPIO 2 (I2C1 SDA)" style="shape=partialRectangle;connectable=0;fillColor=none;top=0;left=0;bottom=0;right=0;align=left;spacingLeft=6;overflow=hidden;whiteSpace=wrap;html=1;" parent="m5U6jbmUyWmy_Dcwf7JY-40" vertex="1">
          <mxGeometry x="30" width="150" height="30" as="geometry">
            <mxRectangle width="150" height="30" as="alternateBounds" />
          </mxGeometry>
        </mxCell>
        <mxCell id="m5U6jbmUyWmy_Dcwf7JY-143" value="5v" style="shape=partialRectangle;connectable=0;fillColor=none;top=0;left=0;bottom=0;right=0;align=right;spacingLeft=6;overflow=hidden;whiteSpace=wrap;html=1;" parent="m5U6jbmUyWmy_Dcwf7JY-40" vertex="1">
          <mxGeometry x="180" width="150" height="30" as="geometry">
            <mxRectangle width="150" height="30" as="alternateBounds" />
          </mxGeometry>
        </mxCell>
        <mxCell id="m5U6jbmUyWmy_Dcwf7JY-126" value="4" style="shape=partialRectangle;connectable=0;fillColor=none;top=0;left=0;bottom=0;right=0;align=center;spacingLeft=6;overflow=hidden;whiteSpace=wrap;html=1;" parent="m5U6jbmUyWmy_Dcwf7JY-40" vertex="1">
          <mxGeometry x="330" width="30" height="30" as="geometry">
            <mxRectangle width="30" height="30" as="alternateBounds" />
          </mxGeometry>
        </mxCell>
        <mxCell id="m5U6jbmUyWmy_Dcwf7JY-43" value="" style="shape=tableRow;horizontal=0;startSize=0;swimlaneHead=0;swimlaneBody=0;fillColor=none;collapsible=0;dropTarget=0;points=[[0,0.5],[1,0.5]];portConstraint=eastwest;top=0;left=0;right=0;bottom=0;" parent="m5U6jbmUyWmy_Dcwf7JY-33" vertex="1">
          <mxGeometry y="110" width="360" height="30" as="geometry" />
        </mxCell>
        <mxCell id="m5U6jbmUyWmy_Dcwf7JY-44" value="5" style="shape=partialRectangle;connectable=0;fillColor=none;top=0;left=0;bottom=0;right=0;editable=1;overflow=hidden;whiteSpace=wrap;html=1;" parent="m5U6jbmUyWmy_Dcwf7JY-43" vertex="1">
          <mxGeometry width="30" height="30" as="geometry">
            <mxRectangle width="30" height="30" as="alternateBounds" />
          </mxGeometry>
        </mxCell>
        <mxCell id="m5U6jbmUyWmy_Dcwf7JY-45" value="GPIO 3 (I2C1 SCL)" style="shape=partialRectangle;connectable=0;fillColor=none;top=0;left=0;bottom=0;right=0;align=left;spacingLeft=6;overflow=hidden;whiteSpace=wrap;html=1;" parent="m5U6jbmUyWmy_Dcwf7JY-43" vertex="1">
          <mxGeometry x="30" width="150" height="30" as="geometry">
            <mxRectangle width="150" height="30" as="alternateBounds" />
          </mxGeometry>
        </mxCell>
        <mxCell id="m5U6jbmUyWmy_Dcwf7JY-144" value="GND" style="shape=partialRectangle;connectable=0;fillColor=none;top=0;left=0;bottom=0;right=0;align=right;spacingLeft=6;overflow=hidden;whiteSpace=wrap;html=1;" parent="m5U6jbmUyWmy_Dcwf7JY-43" vertex="1">
          <mxGeometry x="180" width="150" height="30" as="geometry">
            <mxRectangle width="150" height="30" as="alternateBounds" />
          </mxGeometry>
        </mxCell>
        <mxCell id="m5U6jbmUyWmy_Dcwf7JY-127" value="6" style="shape=partialRectangle;connectable=0;fillColor=none;top=0;left=0;bottom=0;right=0;align=center;spacingLeft=6;overflow=hidden;whiteSpace=wrap;html=1;" parent="m5U6jbmUyWmy_Dcwf7JY-43" vertex="1">
          <mxGeometry x="330" width="30" height="30" as="geometry">
            <mxRectangle width="30" height="30" as="alternateBounds" />
          </mxGeometry>
        </mxCell>
        <mxCell id="m5U6jbmUyWmy_Dcwf7JY-202" style="shape=tableRow;horizontal=0;startSize=0;swimlaneHead=0;swimlaneBody=0;fillColor=none;collapsible=0;dropTarget=0;points=[[0,0.5],[1,0.5]];portConstraint=eastwest;top=0;left=0;right=0;bottom=0;" parent="m5U6jbmUyWmy_Dcwf7JY-33" vertex="1">
          <mxGeometry y="140" width="360" height="30" as="geometry" />
        </mxCell>
        <mxCell id="m5U6jbmUyWmy_Dcwf7JY-203" value="7" style="shape=partialRectangle;connectable=0;fillColor=#fad9d5;top=0;left=0;bottom=0;right=0;editable=1;overflow=hidden;whiteSpace=wrap;html=1;strokeColor=#ae4132;" parent="m5U6jbmUyWmy_Dcwf7JY-202" vertex="1">
          <mxGeometry width="30" height="30" as="geometry">
            <mxRectangle width="30" height="30" as="alternateBounds" />
          </mxGeometry>
        </mxCell>
        <mxCell id="m5U6jbmUyWmy_Dcwf7JY-204" value="GPIO 4 (GPCLK0)" style="shape=partialRectangle;connectable=0;fillColor=none;top=0;left=0;bottom=0;right=0;align=left;spacingLeft=6;overflow=hidden;whiteSpace=wrap;html=1;" parent="m5U6jbmUyWmy_Dcwf7JY-202" vertex="1">
          <mxGeometry x="30" width="150" height="30" as="geometry">
            <mxRectangle width="150" height="30" as="alternateBounds" />
          </mxGeometry>
        </mxCell>
        <mxCell id="m5U6jbmUyWmy_Dcwf7JY-205" value="GPIO 14 (UART TX)" style="shape=partialRectangle;connectable=0;fillColor=none;top=0;left=0;bottom=0;right=0;align=right;spacingLeft=6;overflow=hidden;whiteSpace=wrap;html=1;" parent="m5U6jbmUyWmy_Dcwf7JY-202" vertex="1">
          <mxGeometry x="180" width="150" height="30" as="geometry">
            <mxRectangle width="150" height="30" as="alternateBounds" />
          </mxGeometry>
        </mxCell>
        <mxCell id="m5U6jbmUyWmy_Dcwf7JY-206" value="8" style="shape=partialRectangle;connectable=0;fillColor=#fad9d5;top=0;left=0;bottom=0;right=0;align=center;spacingLeft=6;overflow=hidden;whiteSpace=wrap;html=1;strokeColor=#ae4132;" parent="m5U6jbmUyWmy_Dcwf7JY-202" vertex="1">
          <mxGeometry x="330" width="30" height="30" as="geometry">
            <mxRectangle width="30" height="30" as="alternateBounds" />
          </mxGeometry>
        </mxCell>
        <mxCell id="m5U6jbmUyWmy_Dcwf7JY-105" style="shape=tableRow;horizontal=0;startSize=0;swimlaneHead=0;swimlaneBody=0;fillColor=none;collapsible=0;dropTarget=0;points=[[0,0.5],[1,0.5]];portConstraint=eastwest;top=0;left=0;right=0;bottom=0;" parent="m5U6jbmUyWmy_Dcwf7JY-33" vertex="1">
          <mxGeometry y="170" width="360" height="30" as="geometry" />
        </mxCell>
        <mxCell id="m5U6jbmUyWmy_Dcwf7JY-106" value="9" style="shape=partialRectangle;connectable=0;fillColor=none;top=0;left=0;bottom=0;right=0;editable=1;overflow=hidden;whiteSpace=wrap;html=1;" parent="m5U6jbmUyWmy_Dcwf7JY-105" vertex="1">
          <mxGeometry width="30" height="30" as="geometry">
            <mxRectangle width="30" height="30" as="alternateBounds" />
          </mxGeometry>
        </mxCell>
        <mxCell id="m5U6jbmUyWmy_Dcwf7JY-107" value="GND" style="shape=partialRectangle;connectable=0;fillColor=none;top=0;left=0;bottom=0;right=0;align=left;spacingLeft=6;overflow=hidden;whiteSpace=wrap;html=1;" parent="m5U6jbmUyWmy_Dcwf7JY-105" vertex="1">
          <mxGeometry x="30" width="150" height="30" as="geometry">
            <mxRectangle width="150" height="30" as="alternateBounds" />
          </mxGeometry>
        </mxCell>
        <mxCell id="m5U6jbmUyWmy_Dcwf7JY-145" value="GPIO 15 (UART RX)" style="shape=partialRectangle;connectable=0;fillColor=none;top=0;left=0;bottom=0;right=0;align=right;spacingLeft=6;overflow=hidden;whiteSpace=wrap;html=1;" parent="m5U6jbmUyWmy_Dcwf7JY-105" vertex="1">
          <mxGeometry x="180" width="150" height="30" as="geometry">
            <mxRectangle width="150" height="30" as="alternateBounds" />
          </mxGeometry>
        </mxCell>
        <mxCell id="m5U6jbmUyWmy_Dcwf7JY-128" value="10" style="shape=partialRectangle;connectable=0;fillColor=#fad9d5;top=0;left=0;bottom=0;right=0;align=center;spacingLeft=6;overflow=hidden;whiteSpace=wrap;html=1;strokeColor=#ae4132;" parent="m5U6jbmUyWmy_Dcwf7JY-105" vertex="1">
          <mxGeometry x="330" width="30" height="30" as="geometry">
            <mxRectangle width="30" height="30" as="alternateBounds" />
          </mxGeometry>
        </mxCell>
        <mxCell id="m5U6jbmUyWmy_Dcwf7JY-102" style="shape=tableRow;horizontal=0;startSize=0;swimlaneHead=0;swimlaneBody=0;fillColor=none;collapsible=0;dropTarget=0;points=[[0,0.5],[1,0.5]];portConstraint=eastwest;top=0;left=0;right=0;bottom=0;" parent="m5U6jbmUyWmy_Dcwf7JY-33" vertex="1">
          <mxGeometry y="200" width="360" height="30" as="geometry" />
        </mxCell>
        <mxCell id="m5U6jbmUyWmy_Dcwf7JY-103" value="11" style="shape=partialRectangle;connectable=0;fillColor=none;top=0;left=0;bottom=0;right=0;editable=1;overflow=hidden;whiteSpace=wrap;html=1;" parent="m5U6jbmUyWmy_Dcwf7JY-102" vertex="1">
          <mxGeometry width="30" height="30" as="geometry">
            <mxRectangle width="30" height="30" as="alternateBounds" />
          </mxGeometry>
        </mxCell>
        <mxCell id="m5U6jbmUyWmy_Dcwf7JY-104" value="GPIO 17" style="shape=partialRectangle;connectable=0;fillColor=none;top=0;left=0;bottom=0;right=0;align=left;spacingLeft=6;overflow=hidden;whiteSpace=wrap;html=1;" parent="m5U6jbmUyWmy_Dcwf7JY-102" vertex="1">
          <mxGeometry x="30" width="150" height="30" as="geometry">
            <mxRectangle width="150" height="30" as="alternateBounds" />
          </mxGeometry>
        </mxCell>
        <mxCell id="m5U6jbmUyWmy_Dcwf7JY-146" value="GPIO 18 (PCM CLK)" style="shape=partialRectangle;connectable=0;fillColor=none;top=0;left=0;bottom=0;right=0;align=right;spacingLeft=6;overflow=hidden;whiteSpace=wrap;html=1;" parent="m5U6jbmUyWmy_Dcwf7JY-102" vertex="1">
          <mxGeometry x="180" width="150" height="30" as="geometry">
            <mxRectangle width="150" height="30" as="alternateBounds" />
          </mxGeometry>
        </mxCell>
        <mxCell id="m5U6jbmUyWmy_Dcwf7JY-129" value="12" style="shape=partialRectangle;connectable=0;fillColor=none;top=0;left=0;bottom=0;right=0;align=center;spacingLeft=6;overflow=hidden;whiteSpace=wrap;html=1;" parent="m5U6jbmUyWmy_Dcwf7JY-102" vertex="1">
          <mxGeometry x="330" width="30" height="30" as="geometry">
            <mxRectangle width="30" height="30" as="alternateBounds" />
          </mxGeometry>
        </mxCell>
        <mxCell id="m5U6jbmUyWmy_Dcwf7JY-99" style="shape=tableRow;horizontal=0;startSize=0;swimlaneHead=0;swimlaneBody=0;fillColor=none;collapsible=0;dropTarget=0;points=[[0,0.5],[1,0.5]];portConstraint=eastwest;top=0;left=0;right=0;bottom=0;" parent="m5U6jbmUyWmy_Dcwf7JY-33" vertex="1">
          <mxGeometry y="230" width="360" height="30" as="geometry" />
        </mxCell>
        <mxCell id="m5U6jbmUyWmy_Dcwf7JY-100" value="13" style="shape=partialRectangle;connectable=0;fillColor=none;top=0;left=0;bottom=0;right=0;editable=1;overflow=hidden;whiteSpace=wrap;html=1;" parent="m5U6jbmUyWmy_Dcwf7JY-99" vertex="1">
          <mxGeometry width="30" height="30" as="geometry">
            <mxRectangle width="30" height="30" as="alternateBounds" />
          </mxGeometry>
        </mxCell>
        <mxCell id="m5U6jbmUyWmy_Dcwf7JY-101" value="GPIO 27" style="shape=partialRectangle;connectable=0;fillColor=none;top=0;left=0;bottom=0;right=0;align=left;spacingLeft=6;overflow=hidden;whiteSpace=wrap;html=1;" parent="m5U6jbmUyWmy_Dcwf7JY-99" vertex="1">
          <mxGeometry x="30" width="150" height="30" as="geometry">
            <mxRectangle width="150" height="30" as="alternateBounds" />
          </mxGeometry>
        </mxCell>
        <mxCell id="m5U6jbmUyWmy_Dcwf7JY-147" value="GND" style="shape=partialRectangle;connectable=0;fillColor=none;top=0;left=0;bottom=0;right=0;align=right;spacingLeft=6;overflow=hidden;whiteSpace=wrap;html=1;" parent="m5U6jbmUyWmy_Dcwf7JY-99" vertex="1">
          <mxGeometry x="180" width="150" height="30" as="geometry">
            <mxRectangle width="150" height="30" as="alternateBounds" />
          </mxGeometry>
        </mxCell>
        <mxCell id="m5U6jbmUyWmy_Dcwf7JY-130" value="14" style="shape=partialRectangle;connectable=0;fillColor=none;top=0;left=0;bottom=0;right=0;align=center;spacingLeft=6;overflow=hidden;whiteSpace=wrap;html=1;" parent="m5U6jbmUyWmy_Dcwf7JY-99" vertex="1">
          <mxGeometry x="330" width="30" height="30" as="geometry">
            <mxRectangle width="30" height="30" as="alternateBounds" />
          </mxGeometry>
        </mxCell>
        <mxCell id="m5U6jbmUyWmy_Dcwf7JY-96" style="shape=tableRow;horizontal=0;startSize=0;swimlaneHead=0;swimlaneBody=0;fillColor=none;collapsible=0;dropTarget=0;points=[[0,0.5],[1,0.5]];portConstraint=eastwest;top=0;left=0;right=0;bottom=0;" parent="m5U6jbmUyWmy_Dcwf7JY-33" vertex="1">
          <mxGeometry y="260" width="360" height="30" as="geometry" />
        </mxCell>
        <mxCell id="m5U6jbmUyWmy_Dcwf7JY-97" value="15" style="shape=partialRectangle;connectable=0;fillColor=none;top=0;left=0;bottom=0;right=0;editable=1;overflow=hidden;whiteSpace=wrap;html=1;" parent="m5U6jbmUyWmy_Dcwf7JY-96" vertex="1">
          <mxGeometry width="30" height="30" as="geometry">
            <mxRectangle width="30" height="30" as="alternateBounds" />
          </mxGeometry>
        </mxCell>
        <mxCell id="m5U6jbmUyWmy_Dcwf7JY-98" value="GPIO22" style="shape=partialRectangle;connectable=0;fillColor=none;top=0;left=0;bottom=0;right=0;align=left;spacingLeft=6;overflow=hidden;whiteSpace=wrap;html=1;" parent="m5U6jbmUyWmy_Dcwf7JY-96" vertex="1">
          <mxGeometry x="30" width="150" height="30" as="geometry">
            <mxRectangle width="150" height="30" as="alternateBounds" />
          </mxGeometry>
        </mxCell>
        <mxCell id="m5U6jbmUyWmy_Dcwf7JY-148" value="GPIO 23" style="shape=partialRectangle;connectable=0;fillColor=none;top=0;left=0;bottom=0;right=0;align=right;spacingLeft=6;overflow=hidden;whiteSpace=wrap;html=1;" parent="m5U6jbmUyWmy_Dcwf7JY-96" vertex="1">
          <mxGeometry x="180" width="150" height="30" as="geometry">
            <mxRectangle width="150" height="30" as="alternateBounds" />
          </mxGeometry>
        </mxCell>
        <mxCell id="m5U6jbmUyWmy_Dcwf7JY-131" value="16" style="shape=partialRectangle;connectable=0;fillColor=none;top=0;left=0;bottom=0;right=0;align=center;spacingLeft=6;overflow=hidden;whiteSpace=wrap;html=1;" parent="m5U6jbmUyWmy_Dcwf7JY-96" vertex="1">
          <mxGeometry x="330" width="30" height="30" as="geometry">
            <mxRectangle width="30" height="30" as="alternateBounds" />
          </mxGeometry>
        </mxCell>
        <mxCell id="m5U6jbmUyWmy_Dcwf7JY-93" style="shape=tableRow;horizontal=0;startSize=0;swimlaneHead=0;swimlaneBody=0;fillColor=none;collapsible=0;dropTarget=0;points=[[0,0.5],[1,0.5]];portConstraint=eastwest;top=0;left=0;right=0;bottom=0;" parent="m5U6jbmUyWmy_Dcwf7JY-33" vertex="1">
          <mxGeometry y="290" width="360" height="30" as="geometry" />
        </mxCell>
        <mxCell id="m5U6jbmUyWmy_Dcwf7JY-94" value="17" style="shape=partialRectangle;connectable=0;fillColor=none;top=0;left=0;bottom=0;right=0;editable=1;overflow=hidden;whiteSpace=wrap;html=1;" parent="m5U6jbmUyWmy_Dcwf7JY-93" vertex="1">
          <mxGeometry width="30" height="30" as="geometry">
            <mxRectangle width="30" height="30" as="alternateBounds" />
          </mxGeometry>
        </mxCell>
        <mxCell id="m5U6jbmUyWmy_Dcwf7JY-95" value="3v3" style="shape=partialRectangle;connectable=0;fillColor=none;top=0;left=0;bottom=0;right=0;align=left;spacingLeft=6;overflow=hidden;whiteSpace=wrap;html=1;" parent="m5U6jbmUyWmy_Dcwf7JY-93" vertex="1">
          <mxGeometry x="30" width="150" height="30" as="geometry">
            <mxRectangle width="150" height="30" as="alternateBounds" />
          </mxGeometry>
        </mxCell>
        <mxCell id="m5U6jbmUyWmy_Dcwf7JY-149" value="GPIO 24" style="shape=partialRectangle;connectable=0;fillColor=none;top=0;left=0;bottom=0;right=0;align=right;spacingLeft=6;overflow=hidden;whiteSpace=wrap;html=1;" parent="m5U6jbmUyWmy_Dcwf7JY-93" vertex="1">
          <mxGeometry x="180" width="150" height="30" as="geometry">
            <mxRectangle width="150" height="30" as="alternateBounds" />
          </mxGeometry>
        </mxCell>
        <mxCell id="m5U6jbmUyWmy_Dcwf7JY-132" value="18" style="shape=partialRectangle;connectable=0;fillColor=none;top=0;left=0;bottom=0;right=0;align=center;spacingLeft=6;overflow=hidden;whiteSpace=wrap;html=1;" parent="m5U6jbmUyWmy_Dcwf7JY-93" vertex="1">
          <mxGeometry x="330" width="30" height="30" as="geometry">
            <mxRectangle width="30" height="30" as="alternateBounds" />
          </mxGeometry>
        </mxCell>
        <mxCell id="m5U6jbmUyWmy_Dcwf7JY-90" style="shape=tableRow;horizontal=0;startSize=0;swimlaneHead=0;swimlaneBody=0;fillColor=none;collapsible=0;dropTarget=0;points=[[0,0.5],[1,0.5]];portConstraint=eastwest;top=0;left=0;right=0;bottom=0;" parent="m5U6jbmUyWmy_Dcwf7JY-33" vertex="1">
          <mxGeometry y="320" width="360" height="30" as="geometry" />
        </mxCell>
        <mxCell id="m5U6jbmUyWmy_Dcwf7JY-91" value="19" style="shape=partialRectangle;connectable=0;fillColor=#d0cee2;top=0;left=0;bottom=0;right=0;editable=1;overflow=hidden;whiteSpace=wrap;html=1;strokeColor=#56517e;" parent="m5U6jbmUyWmy_Dcwf7JY-90" vertex="1">
          <mxGeometry width="30" height="30" as="geometry">
            <mxRectangle width="30" height="30" as="alternateBounds" />
          </mxGeometry>
        </mxCell>
        <mxCell id="m5U6jbmUyWmy_Dcwf7JY-92" value="GPIO 10 (SPI0 MOSI)" style="shape=partialRectangle;connectable=0;fillColor=none;top=0;left=0;bottom=0;right=0;align=left;spacingLeft=6;overflow=hidden;whiteSpace=wrap;html=1;" parent="m5U6jbmUyWmy_Dcwf7JY-90" vertex="1">
          <mxGeometry x="30" width="150" height="30" as="geometry">
            <mxRectangle width="150" height="30" as="alternateBounds" />
          </mxGeometry>
        </mxCell>
        <mxCell id="m5U6jbmUyWmy_Dcwf7JY-150" value="GND" style="shape=partialRectangle;connectable=0;fillColor=none;top=0;left=0;bottom=0;right=0;align=right;spacingLeft=6;overflow=hidden;whiteSpace=wrap;html=1;" parent="m5U6jbmUyWmy_Dcwf7JY-90" vertex="1">
          <mxGeometry x="180" width="150" height="30" as="geometry">
            <mxRectangle width="150" height="30" as="alternateBounds" />
          </mxGeometry>
        </mxCell>
        <mxCell id="m5U6jbmUyWmy_Dcwf7JY-133" value="20" style="shape=partialRectangle;connectable=0;fillColor=none;top=0;left=0;bottom=0;right=0;align=center;spacingLeft=6;overflow=hidden;whiteSpace=wrap;html=1;" parent="m5U6jbmUyWmy_Dcwf7JY-90" vertex="1">
          <mxGeometry x="330" width="30" height="30" as="geometry">
            <mxRectangle width="30" height="30" as="alternateBounds" />
          </mxGeometry>
        </mxCell>
        <mxCell id="m5U6jbmUyWmy_Dcwf7JY-87" style="shape=tableRow;horizontal=0;startSize=0;swimlaneHead=0;swimlaneBody=0;fillColor=none;collapsible=0;dropTarget=0;points=[[0,0.5],[1,0.5]];portConstraint=eastwest;top=0;left=0;right=0;bottom=0;" parent="m5U6jbmUyWmy_Dcwf7JY-33" vertex="1">
          <mxGeometry y="350" width="360" height="30" as="geometry" />
        </mxCell>
        <mxCell id="m5U6jbmUyWmy_Dcwf7JY-88" value="21" style="shape=partialRectangle;connectable=0;fillColor=#d0cee2;top=0;left=0;bottom=0;right=0;editable=1;overflow=hidden;whiteSpace=wrap;html=1;strokeColor=#56517e;" parent="m5U6jbmUyWmy_Dcwf7JY-87" vertex="1">
          <mxGeometry width="30" height="30" as="geometry">
            <mxRectangle width="30" height="30" as="alternateBounds" />
          </mxGeometry>
        </mxCell>
        <mxCell id="m5U6jbmUyWmy_Dcwf7JY-89" value="GPIO 9 (SPI0 MISO)" style="shape=partialRectangle;connectable=0;fillColor=none;top=0;left=0;bottom=0;right=0;align=left;spacingLeft=6;overflow=hidden;whiteSpace=wrap;html=1;" parent="m5U6jbmUyWmy_Dcwf7JY-87" vertex="1">
          <mxGeometry x="30" width="150" height="30" as="geometry">
            <mxRectangle width="150" height="30" as="alternateBounds" />
          </mxGeometry>
        </mxCell>
        <mxCell id="m5U6jbmUyWmy_Dcwf7JY-151" value="GPIO 25" style="shape=partialRectangle;connectable=0;fillColor=none;top=0;left=0;bottom=0;right=0;align=right;spacingLeft=6;overflow=hidden;whiteSpace=wrap;html=1;" parent="m5U6jbmUyWmy_Dcwf7JY-87" vertex="1">
          <mxGeometry x="180" width="150" height="30" as="geometry">
            <mxRectangle width="150" height="30" as="alternateBounds" />
          </mxGeometry>
        </mxCell>
        <mxCell id="m5U6jbmUyWmy_Dcwf7JY-134" value="22" style="shape=partialRectangle;connectable=0;fillColor=#d0cee2;top=0;left=0;bottom=0;right=0;align=center;spacingLeft=6;overflow=hidden;whiteSpace=wrap;html=1;strokeColor=#56517e;" parent="m5U6jbmUyWmy_Dcwf7JY-87" vertex="1">
          <mxGeometry x="330" width="30" height="30" as="geometry">
            <mxRectangle width="30" height="30" as="alternateBounds" />
          </mxGeometry>
        </mxCell>
        <mxCell id="m5U6jbmUyWmy_Dcwf7JY-197" style="shape=tableRow;horizontal=0;startSize=0;swimlaneHead=0;swimlaneBody=0;fillColor=none;collapsible=0;dropTarget=0;points=[[0,0.5],[1,0.5]];portConstraint=eastwest;top=0;left=0;right=0;bottom=0;" parent="m5U6jbmUyWmy_Dcwf7JY-33" vertex="1">
          <mxGeometry y="380" width="360" height="30" as="geometry" />
        </mxCell>
        <mxCell id="m5U6jbmUyWmy_Dcwf7JY-198" value="23" style="shape=partialRectangle;connectable=0;fillColor=#d0cee2;top=0;left=0;bottom=0;right=0;editable=1;overflow=hidden;whiteSpace=wrap;html=1;strokeColor=#56517e;" parent="m5U6jbmUyWmy_Dcwf7JY-197" vertex="1">
          <mxGeometry width="30" height="30" as="geometry">
            <mxRectangle width="30" height="30" as="alternateBounds" />
          </mxGeometry>
        </mxCell>
        <mxCell id="m5U6jbmUyWmy_Dcwf7JY-199" value="GPIO 11 (GPI0 CLK)" style="shape=partialRectangle;connectable=0;fillColor=none;top=0;left=0;bottom=0;right=0;align=left;spacingLeft=6;overflow=hidden;whiteSpace=wrap;html=1;" parent="m5U6jbmUyWmy_Dcwf7JY-197" vertex="1">
          <mxGeometry x="30" width="150" height="30" as="geometry">
            <mxRectangle width="150" height="30" as="alternateBounds" />
          </mxGeometry>
        </mxCell>
        <mxCell id="m5U6jbmUyWmy_Dcwf7JY-200" value="GPIO 8 (SPI0 CE0)" style="shape=partialRectangle;connectable=0;fillColor=none;top=0;left=0;bottom=0;right=0;align=right;spacingLeft=6;overflow=hidden;whiteSpace=wrap;html=1;" parent="m5U6jbmUyWmy_Dcwf7JY-197" vertex="1">
          <mxGeometry x="180" width="150" height="30" as="geometry">
            <mxRectangle width="150" height="30" as="alternateBounds" />
          </mxGeometry>
        </mxCell>
        <mxCell id="m5U6jbmUyWmy_Dcwf7JY-201" value="24" style="shape=partialRectangle;connectable=0;fillColor=#d0cee2;top=0;left=0;bottom=0;right=0;align=center;spacingLeft=6;overflow=hidden;whiteSpace=wrap;html=1;strokeColor=#56517e;" parent="m5U6jbmUyWmy_Dcwf7JY-197" vertex="1">
          <mxGeometry x="330" width="30" height="30" as="geometry">
            <mxRectangle width="30" height="30" as="alternateBounds" />
          </mxGeometry>
        </mxCell>
        <mxCell id="m5U6jbmUyWmy_Dcwf7JY-192" style="shape=tableRow;horizontal=0;startSize=0;swimlaneHead=0;swimlaneBody=0;fillColor=none;collapsible=0;dropTarget=0;points=[[0,0.5],[1,0.5]];portConstraint=eastwest;top=0;left=0;right=0;bottom=0;" parent="m5U6jbmUyWmy_Dcwf7JY-33" vertex="1">
          <mxGeometry y="410" width="360" height="30" as="geometry" />
        </mxCell>
        <mxCell id="m5U6jbmUyWmy_Dcwf7JY-193" value="25" style="shape=partialRectangle;connectable=0;fillColor=none;top=0;left=0;bottom=0;right=0;editable=1;overflow=hidden;whiteSpace=wrap;html=1;" parent="m5U6jbmUyWmy_Dcwf7JY-192" vertex="1">
          <mxGeometry width="30" height="30" as="geometry">
            <mxRectangle width="30" height="30" as="alternateBounds" />
          </mxGeometry>
        </mxCell>
        <mxCell id="m5U6jbmUyWmy_Dcwf7JY-194" value="GND" style="shape=partialRectangle;connectable=0;fillColor=none;top=0;left=0;bottom=0;right=0;align=left;spacingLeft=6;overflow=hidden;whiteSpace=wrap;html=1;" parent="m5U6jbmUyWmy_Dcwf7JY-192" vertex="1">
          <mxGeometry x="30" width="150" height="30" as="geometry">
            <mxRectangle width="150" height="30" as="alternateBounds" />
          </mxGeometry>
        </mxCell>
        <mxCell id="m5U6jbmUyWmy_Dcwf7JY-195" value="GPIO 7 (SPI0 CE1)" style="shape=partialRectangle;connectable=0;fillColor=none;top=0;left=0;bottom=0;right=0;align=right;spacingLeft=6;overflow=hidden;whiteSpace=wrap;html=1;" parent="m5U6jbmUyWmy_Dcwf7JY-192" vertex="1">
          <mxGeometry x="180" width="150" height="30" as="geometry">
            <mxRectangle width="150" height="30" as="alternateBounds" />
          </mxGeometry>
        </mxCell>
        <mxCell id="m5U6jbmUyWmy_Dcwf7JY-196" value="26" style="shape=partialRectangle;connectable=0;fillColor=none;top=0;left=0;bottom=0;right=0;align=center;spacingLeft=6;overflow=hidden;whiteSpace=wrap;html=1;" parent="m5U6jbmUyWmy_Dcwf7JY-192" vertex="1">
          <mxGeometry x="330" width="30" height="30" as="geometry">
            <mxRectangle width="30" height="30" as="alternateBounds" />
          </mxGeometry>
        </mxCell>
        <mxCell id="m5U6jbmUyWmy_Dcwf7JY-187" style="shape=tableRow;horizontal=0;startSize=0;swimlaneHead=0;swimlaneBody=0;fillColor=none;collapsible=0;dropTarget=0;points=[[0,0.5],[1,0.5]];portConstraint=eastwest;top=0;left=0;right=0;bottom=0;" parent="m5U6jbmUyWmy_Dcwf7JY-33" vertex="1">
          <mxGeometry y="440" width="360" height="30" as="geometry" />
        </mxCell>
        <mxCell id="m5U6jbmUyWmy_Dcwf7JY-188" value="27" style="shape=partialRectangle;connectable=0;fillColor=none;top=0;left=0;bottom=0;right=0;editable=1;overflow=hidden;whiteSpace=wrap;html=1;" parent="m5U6jbmUyWmy_Dcwf7JY-187" vertex="1">
          <mxGeometry width="30" height="30" as="geometry">
            <mxRectangle width="30" height="30" as="alternateBounds" />
          </mxGeometry>
        </mxCell>
        <mxCell id="m5U6jbmUyWmy_Dcwf7JY-189" value="GPIO 0 (EEPROM SDA)" style="shape=partialRectangle;connectable=0;fillColor=none;top=0;left=0;bottom=0;right=0;align=left;spacingLeft=6;overflow=hidden;whiteSpace=wrap;html=1;" parent="m5U6jbmUyWmy_Dcwf7JY-187" vertex="1">
          <mxGeometry x="30" width="150" height="30" as="geometry">
            <mxRectangle width="150" height="30" as="alternateBounds" />
          </mxGeometry>
        </mxCell>
        <mxCell id="m5U6jbmUyWmy_Dcwf7JY-190" value="GPIO 1 (EEPROM SCL)" style="shape=partialRectangle;connectable=0;fillColor=none;top=0;left=0;bottom=0;right=0;align=right;spacingLeft=6;overflow=hidden;whiteSpace=wrap;html=1;" parent="m5U6jbmUyWmy_Dcwf7JY-187" vertex="1">
          <mxGeometry x="180" width="150" height="30" as="geometry">
            <mxRectangle width="150" height="30" as="alternateBounds" />
          </mxGeometry>
        </mxCell>
        <mxCell id="m5U6jbmUyWmy_Dcwf7JY-191" value="28" style="shape=partialRectangle;connectable=0;fillColor=none;top=0;left=0;bottom=0;right=0;align=center;spacingLeft=6;overflow=hidden;whiteSpace=wrap;html=1;" parent="m5U6jbmUyWmy_Dcwf7JY-187" vertex="1">
          <mxGeometry x="330" width="30" height="30" as="geometry">
            <mxRectangle width="30" height="30" as="alternateBounds" />
          </mxGeometry>
        </mxCell>
        <mxCell id="m5U6jbmUyWmy_Dcwf7JY-182" style="shape=tableRow;horizontal=0;startSize=0;swimlaneHead=0;swimlaneBody=0;fillColor=none;collapsible=0;dropTarget=0;points=[[0,0.5],[1,0.5]];portConstraint=eastwest;top=0;left=0;right=0;bottom=0;" parent="m5U6jbmUyWmy_Dcwf7JY-33" vertex="1">
          <mxGeometry y="470" width="360" height="30" as="geometry" />
        </mxCell>
        <mxCell id="m5U6jbmUyWmy_Dcwf7JY-183" value="29" style="shape=partialRectangle;connectable=0;fillColor=none;top=0;left=0;bottom=0;right=0;editable=1;overflow=hidden;whiteSpace=wrap;html=1;" parent="m5U6jbmUyWmy_Dcwf7JY-182" vertex="1">
          <mxGeometry width="30" height="30" as="geometry">
            <mxRectangle width="30" height="30" as="alternateBounds" />
          </mxGeometry>
        </mxCell>
        <mxCell id="m5U6jbmUyWmy_Dcwf7JY-184" value="GPIO 5" style="shape=partialRectangle;connectable=0;fillColor=none;top=0;left=0;bottom=0;right=0;align=left;spacingLeft=6;overflow=hidden;whiteSpace=wrap;html=1;" parent="m5U6jbmUyWmy_Dcwf7JY-182" vertex="1">
          <mxGeometry x="30" width="150" height="30" as="geometry">
            <mxRectangle width="150" height="30" as="alternateBounds" />
          </mxGeometry>
        </mxCell>
        <mxCell id="m5U6jbmUyWmy_Dcwf7JY-185" value="GND" style="shape=partialRectangle;connectable=0;fillColor=none;top=0;left=0;bottom=0;right=0;align=right;spacingLeft=6;overflow=hidden;whiteSpace=wrap;html=1;" parent="m5U6jbmUyWmy_Dcwf7JY-182" vertex="1">
          <mxGeometry x="180" width="150" height="30" as="geometry">
            <mxRectangle width="150" height="30" as="alternateBounds" />
          </mxGeometry>
        </mxCell>
        <mxCell id="m5U6jbmUyWmy_Dcwf7JY-186" value="30" style="shape=partialRectangle;connectable=0;fillColor=none;top=0;left=0;bottom=0;right=0;align=center;spacingLeft=6;overflow=hidden;whiteSpace=wrap;html=1;" parent="m5U6jbmUyWmy_Dcwf7JY-182" vertex="1">
          <mxGeometry x="330" width="30" height="30" as="geometry">
            <mxRectangle width="30" height="30" as="alternateBounds" />
          </mxGeometry>
        </mxCell>
        <mxCell id="m5U6jbmUyWmy_Dcwf7JY-177" style="shape=tableRow;horizontal=0;startSize=0;swimlaneHead=0;swimlaneBody=0;fillColor=none;collapsible=0;dropTarget=0;points=[[0,0.5],[1,0.5]];portConstraint=eastwest;top=0;left=0;right=0;bottom=0;" parent="m5U6jbmUyWmy_Dcwf7JY-33" vertex="1">
          <mxGeometry y="500" width="360" height="30" as="geometry" />
        </mxCell>
        <mxCell id="m5U6jbmUyWmy_Dcwf7JY-178" value="31" style="shape=partialRectangle;connectable=0;fillColor=none;top=0;left=0;bottom=0;right=0;editable=1;overflow=hidden;whiteSpace=wrap;html=1;" parent="m5U6jbmUyWmy_Dcwf7JY-177" vertex="1">
          <mxGeometry width="30" height="30" as="geometry">
            <mxRectangle width="30" height="30" as="alternateBounds" />
          </mxGeometry>
        </mxCell>
        <mxCell id="m5U6jbmUyWmy_Dcwf7JY-179" value="GPIO 6" style="shape=partialRectangle;connectable=0;fillColor=none;top=0;left=0;bottom=0;right=0;align=left;spacingLeft=6;overflow=hidden;whiteSpace=wrap;html=1;" parent="m5U6jbmUyWmy_Dcwf7JY-177" vertex="1">
          <mxGeometry x="30" width="150" height="30" as="geometry">
            <mxRectangle width="150" height="30" as="alternateBounds" />
          </mxGeometry>
        </mxCell>
        <mxCell id="m5U6jbmUyWmy_Dcwf7JY-180" value="GPIO 12 (PWM0)" style="shape=partialRectangle;connectable=0;fillColor=none;top=0;left=0;bottom=0;right=0;align=right;spacingLeft=6;overflow=hidden;whiteSpace=wrap;html=1;" parent="m5U6jbmUyWmy_Dcwf7JY-177" vertex="1">
          <mxGeometry x="180" width="150" height="30" as="geometry">
            <mxRectangle width="150" height="30" as="alternateBounds" />
          </mxGeometry>
        </mxCell>
        <mxCell id="m5U6jbmUyWmy_Dcwf7JY-181" value="32" style="shape=partialRectangle;connectable=0;fillColor=none;top=0;left=0;bottom=0;right=0;align=center;spacingLeft=6;overflow=hidden;whiteSpace=wrap;html=1;" parent="m5U6jbmUyWmy_Dcwf7JY-177" vertex="1">
          <mxGeometry x="330" width="30" height="30" as="geometry">
            <mxRectangle width="30" height="30" as="alternateBounds" />
          </mxGeometry>
        </mxCell>
        <mxCell id="m5U6jbmUyWmy_Dcwf7JY-172" style="shape=tableRow;horizontal=0;startSize=0;swimlaneHead=0;swimlaneBody=0;fillColor=none;collapsible=0;dropTarget=0;points=[[0,0.5],[1,0.5]];portConstraint=eastwest;top=0;left=0;right=0;bottom=0;" parent="m5U6jbmUyWmy_Dcwf7JY-33" vertex="1">
          <mxGeometry y="530" width="360" height="30" as="geometry" />
        </mxCell>
        <mxCell id="m5U6jbmUyWmy_Dcwf7JY-173" value="33" style="shape=partialRectangle;connectable=0;fillColor=none;top=0;left=0;bottom=0;right=0;editable=1;overflow=hidden;whiteSpace=wrap;html=1;" parent="m5U6jbmUyWmy_Dcwf7JY-172" vertex="1">
          <mxGeometry width="30" height="30" as="geometry">
            <mxRectangle width="30" height="30" as="alternateBounds" />
          </mxGeometry>
        </mxCell>
        <mxCell id="m5U6jbmUyWmy_Dcwf7JY-174" value="GPIO13 (PWM1)" style="shape=partialRectangle;connectable=0;fillColor=none;top=0;left=0;bottom=0;right=0;align=left;spacingLeft=6;overflow=hidden;whiteSpace=wrap;html=1;" parent="m5U6jbmUyWmy_Dcwf7JY-172" vertex="1">
          <mxGeometry x="30" width="150" height="30" as="geometry">
            <mxRectangle width="150" height="30" as="alternateBounds" />
          </mxGeometry>
        </mxCell>
        <mxCell id="m5U6jbmUyWmy_Dcwf7JY-175" value="GND" style="shape=partialRectangle;connectable=0;fillColor=none;top=0;left=0;bottom=0;right=0;align=right;spacingLeft=6;overflow=hidden;whiteSpace=wrap;html=1;" parent="m5U6jbmUyWmy_Dcwf7JY-172" vertex="1">
          <mxGeometry x="180" width="150" height="30" as="geometry">
            <mxRectangle width="150" height="30" as="alternateBounds" />
          </mxGeometry>
        </mxCell>
        <mxCell id="m5U6jbmUyWmy_Dcwf7JY-176" value="34" style="shape=partialRectangle;connectable=0;fillColor=none;top=0;left=0;bottom=0;right=0;align=center;spacingLeft=6;overflow=hidden;whiteSpace=wrap;html=1;" parent="m5U6jbmUyWmy_Dcwf7JY-172" vertex="1">
          <mxGeometry x="330" width="30" height="30" as="geometry">
            <mxRectangle width="30" height="30" as="alternateBounds" />
          </mxGeometry>
        </mxCell>
        <mxCell id="m5U6jbmUyWmy_Dcwf7JY-167" style="shape=tableRow;horizontal=0;startSize=0;swimlaneHead=0;swimlaneBody=0;fillColor=none;collapsible=0;dropTarget=0;points=[[0,0.5],[1,0.5]];portConstraint=eastwest;top=0;left=0;right=0;bottom=0;" parent="m5U6jbmUyWmy_Dcwf7JY-33" vertex="1">
          <mxGeometry y="560" width="360" height="30" as="geometry" />
        </mxCell>
        <mxCell id="m5U6jbmUyWmy_Dcwf7JY-168" value="35" style="shape=partialRectangle;connectable=0;fillColor=none;top=0;left=0;bottom=0;right=0;editable=1;overflow=hidden;whiteSpace=wrap;html=1;" parent="m5U6jbmUyWmy_Dcwf7JY-167" vertex="1">
          <mxGeometry width="30" height="30" as="geometry">
            <mxRectangle width="30" height="30" as="alternateBounds" />
          </mxGeometry>
        </mxCell>
        <mxCell id="m5U6jbmUyWmy_Dcwf7JY-169" value="GPIO 19 (PCM FS)" style="shape=partialRectangle;connectable=0;fillColor=none;top=0;left=0;bottom=0;right=0;align=left;spacingLeft=6;overflow=hidden;whiteSpace=wrap;html=1;" parent="m5U6jbmUyWmy_Dcwf7JY-167" vertex="1">
          <mxGeometry x="30" width="150" height="30" as="geometry">
            <mxRectangle width="150" height="30" as="alternateBounds" />
          </mxGeometry>
        </mxCell>
        <mxCell id="m5U6jbmUyWmy_Dcwf7JY-170" value="GPIO 16" style="shape=partialRectangle;connectable=0;fillColor=none;top=0;left=0;bottom=0;right=0;align=right;spacingLeft=6;overflow=hidden;whiteSpace=wrap;html=1;" parent="m5U6jbmUyWmy_Dcwf7JY-167" vertex="1">
          <mxGeometry x="180" width="150" height="30" as="geometry">
            <mxRectangle width="150" height="30" as="alternateBounds" />
          </mxGeometry>
        </mxCell>
        <mxCell id="m5U6jbmUyWmy_Dcwf7JY-171" value="36" style="shape=partialRectangle;connectable=0;fillColor=none;top=0;left=0;bottom=0;right=0;align=center;spacingLeft=6;overflow=hidden;whiteSpace=wrap;html=1;" parent="m5U6jbmUyWmy_Dcwf7JY-167" vertex="1">
          <mxGeometry x="330" width="30" height="30" as="geometry">
            <mxRectangle width="30" height="30" as="alternateBounds" />
          </mxGeometry>
        </mxCell>
        <mxCell id="m5U6jbmUyWmy_Dcwf7JY-162" style="shape=tableRow;horizontal=0;startSize=0;swimlaneHead=0;swimlaneBody=0;fillColor=none;collapsible=0;dropTarget=0;points=[[0,0.5],[1,0.5]];portConstraint=eastwest;top=0;left=0;right=0;bottom=0;" parent="m5U6jbmUyWmy_Dcwf7JY-33" vertex="1">
          <mxGeometry y="590" width="360" height="30" as="geometry" />
        </mxCell>
        <mxCell id="m5U6jbmUyWmy_Dcwf7JY-163" value="37" style="shape=partialRectangle;connectable=0;fillColor=none;top=0;left=0;bottom=0;right=0;editable=1;overflow=hidden;whiteSpace=wrap;html=1;" parent="m5U6jbmUyWmy_Dcwf7JY-162" vertex="1">
          <mxGeometry width="30" height="30" as="geometry">
            <mxRectangle width="30" height="30" as="alternateBounds" />
          </mxGeometry>
        </mxCell>
        <mxCell id="m5U6jbmUyWmy_Dcwf7JY-164" value="GPOI 26" style="shape=partialRectangle;connectable=0;fillColor=none;top=0;left=0;bottom=0;right=0;align=left;spacingLeft=6;overflow=hidden;whiteSpace=wrap;html=1;" parent="m5U6jbmUyWmy_Dcwf7JY-162" vertex="1">
          <mxGeometry x="30" width="150" height="30" as="geometry">
            <mxRectangle width="150" height="30" as="alternateBounds" />
          </mxGeometry>
        </mxCell>
        <mxCell id="m5U6jbmUyWmy_Dcwf7JY-165" value="GPIO 20 (PCM DIN)" style="shape=partialRectangle;connectable=0;fillColor=none;top=0;left=0;bottom=0;right=0;align=right;spacingLeft=6;overflow=hidden;whiteSpace=wrap;html=1;" parent="m5U6jbmUyWmy_Dcwf7JY-162" vertex="1">
          <mxGeometry x="180" width="150" height="30" as="geometry">
            <mxRectangle width="150" height="30" as="alternateBounds" />
          </mxGeometry>
        </mxCell>
        <mxCell id="m5U6jbmUyWmy_Dcwf7JY-166" value="38" style="shape=partialRectangle;connectable=0;fillColor=none;top=0;left=0;bottom=0;right=0;align=center;spacingLeft=6;overflow=hidden;whiteSpace=wrap;html=1;" parent="m5U6jbmUyWmy_Dcwf7JY-162" vertex="1">
          <mxGeometry x="330" width="30" height="30" as="geometry">
            <mxRectangle width="30" height="30" as="alternateBounds" />
          </mxGeometry>
        </mxCell>
        <mxCell id="m5U6jbmUyWmy_Dcwf7JY-157" style="shape=tableRow;horizontal=0;startSize=0;swimlaneHead=0;swimlaneBody=0;fillColor=none;collapsible=0;dropTarget=0;points=[[0,0.5],[1,0.5]];portConstraint=eastwest;top=0;left=0;right=0;bottom=0;" parent="m5U6jbmUyWmy_Dcwf7JY-33" vertex="1">
          <mxGeometry y="620" width="360" height="30" as="geometry" />
        </mxCell>
        <mxCell id="m5U6jbmUyWmy_Dcwf7JY-158" value="39" style="shape=partialRectangle;connectable=0;fillColor=none;top=0;left=0;bottom=0;right=0;editable=1;overflow=hidden;whiteSpace=wrap;html=1;" parent="m5U6jbmUyWmy_Dcwf7JY-157" vertex="1">
          <mxGeometry width="30" height="30" as="geometry">
            <mxRectangle width="30" height="30" as="alternateBounds" />
          </mxGeometry>
        </mxCell>
        <mxCell id="m5U6jbmUyWmy_Dcwf7JY-159" value="GND" style="shape=partialRectangle;connectable=0;fillColor=none;top=0;left=0;bottom=0;right=0;align=left;spacingLeft=6;overflow=hidden;whiteSpace=wrap;html=1;" parent="m5U6jbmUyWmy_Dcwf7JY-157" vertex="1">
          <mxGeometry x="30" width="150" height="30" as="geometry">
            <mxRectangle width="150" height="30" as="alternateBounds" />
          </mxGeometry>
        </mxCell>
        <mxCell id="m5U6jbmUyWmy_Dcwf7JY-160" value="GPIO 21 (PCM DOUT)" style="shape=partialRectangle;connectable=0;fillColor=none;top=0;left=0;bottom=0;right=0;align=right;spacingLeft=6;overflow=hidden;whiteSpace=wrap;html=1;" parent="m5U6jbmUyWmy_Dcwf7JY-157" vertex="1">
          <mxGeometry x="180" width="150" height="30" as="geometry">
            <mxRectangle width="150" height="30" as="alternateBounds" />
          </mxGeometry>
        </mxCell>
        <mxCell id="m5U6jbmUyWmy_Dcwf7JY-161" value="40" style="shape=partialRectangle;connectable=0;fillColor=none;top=0;left=0;bottom=0;right=0;align=center;spacingLeft=6;overflow=hidden;whiteSpace=wrap;html=1;" parent="m5U6jbmUyWmy_Dcwf7JY-157" vertex="1">
          <mxGeometry x="330" width="30" height="30" as="geometry">
            <mxRectangle width="30" height="30" as="alternateBounds" />
          </mxGeometry>
        </mxCell>
        <mxCell id="m5U6jbmUyWmy_Dcwf7JY-47" value="" style="shape=link;html=1;rounded=0;exitX=0.503;exitY=0.915;exitDx=0;exitDy=0;exitPerimeter=0;" parent="1" target="m5U6jbmUyWmy_Dcwf7JY-28" edge="1">
          <mxGeometry width="100" relative="1" as="geometry">
            <mxPoint x="460" y="690" as="sourcePoint" />
            <mxPoint x="540" y="510" as="targetPoint" />
            <Array as="points">
              <mxPoint x="461" y="970" />
            </Array>
          </mxGeometry>
        </mxCell>
        <mxCell id="m5U6jbmUyWmy_Dcwf7JY-208" value="" style="rounded=1;absoluteArcSize=1;html=1;arcSize=10;" parent="1" vertex="1">
          <mxGeometry x="690" y="50" width="150" height="60" as="geometry" />
        </mxCell>
        <mxCell id="m5U6jbmUyWmy_Dcwf7JY-209" value="RS485 CAN HAT" style="html=1;shape=mxgraph.er.anchor;whiteSpace=wrap;" parent="m5U6jbmUyWmy_Dcwf7JY-208" vertex="1">
          <mxGeometry width="75" height="60.00000000000001" as="geometry" />
        </mxCell>
        <mxCell id="m5U6jbmUyWmy_Dcwf7JY-210" value="CAN" style="rounded=1;absoluteArcSize=1;html=1;arcSize=10;whiteSpace=wrap;points=[];strokeColor=#56517e;fillColor=#d0cee2;" parent="m5U6jbmUyWmy_Dcwf7JY-208" vertex="1">
          <mxGeometry x="75" y="3" width="67.49999999999999" height="21.705882352941178" as="geometry" />
        </mxCell>
        <mxCell id="m5U6jbmUyWmy_Dcwf7JY-211" value="RS485" style="rounded=1;absoluteArcSize=1;html=1;arcSize=10;whiteSpace=wrap;points=[];fillColor=#fad9d5;strokeColor=#ae4132;" parent="m5U6jbmUyWmy_Dcwf7JY-208" vertex="1">
          <mxGeometry x="75" y="35.294117647058826" width="67.49999999999999" height="21.705882352941178" as="geometry" />
        </mxCell>
        <mxCell id="qD96fWN0Pc6nH-I5lAnb-1" value="EXT PSU (J20)" style="shape=table;startSize=20;container=1;collapsible=1;childLayout=tableLayout;fixedRows=1;rowLines=0;fontStyle=1;align=center;resizeLast=1;html=1;fontSize=12;aspect=fixed;" vertex="1" parent="1">
          <mxGeometry x="1140.5" y="440" width="93" height="170" as="geometry" />
        </mxCell>
        <mxCell id="qD96fWN0Pc6nH-I5lAnb-2" value="" style="shape=tableRow;horizontal=0;startSize=0;swimlaneHead=0;swimlaneBody=0;fillColor=none;collapsible=0;dropTarget=0;points=[[0,0.5],[1,0.5]];portConstraint=eastwest;top=0;left=0;right=0;bottom=1;" vertex="1" parent="qD96fWN0Pc6nH-I5lAnb-1">
          <mxGeometry y="20" width="93" height="30" as="geometry" />
        </mxCell>
        <mxCell id="qD96fWN0Pc6nH-I5lAnb-3" value="PIN" style="shape=partialRectangle;connectable=0;fillColor=none;top=0;left=0;bottom=0;right=0;fontStyle=1;overflow=hidden;whiteSpace=wrap;html=1;" vertex="1" parent="qD96fWN0Pc6nH-I5lAnb-2">
          <mxGeometry width="30" height="30" as="geometry">
            <mxRectangle width="30" height="30" as="alternateBounds" />
          </mxGeometry>
        </mxCell>
        <mxCell id="qD96fWN0Pc6nH-I5lAnb-4" value="Function" style="shape=partialRectangle;connectable=0;fillColor=none;top=0;left=0;bottom=0;right=0;align=center;spacingLeft=6;fontStyle=5;overflow=hidden;whiteSpace=wrap;html=1;" vertex="1" parent="qD96fWN0Pc6nH-I5lAnb-2">
          <mxGeometry x="30" width="63" height="30" as="geometry">
            <mxRectangle width="63" height="30" as="alternateBounds" />
          </mxGeometry>
        </mxCell>
        <mxCell id="qD96fWN0Pc6nH-I5lAnb-7" value="" style="shape=tableRow;horizontal=0;startSize=0;swimlaneHead=0;swimlaneBody=0;fillColor=none;collapsible=0;dropTarget=0;points=[[0,0.5],[1,0.5]];portConstraint=eastwest;top=0;left=0;right=0;bottom=0;" vertex="1" parent="qD96fWN0Pc6nH-I5lAnb-1">
          <mxGeometry y="50" width="93" height="30" as="geometry" />
        </mxCell>
        <mxCell id="qD96fWN0Pc6nH-I5lAnb-8" value="4" style="shape=partialRectangle;connectable=0;fillColor=none;top=0;left=0;bottom=0;right=0;editable=1;overflow=hidden;whiteSpace=wrap;html=1;" vertex="1" parent="qD96fWN0Pc6nH-I5lAnb-7">
          <mxGeometry width="30" height="30" as="geometry">
            <mxRectangle width="30" height="30" as="alternateBounds" />
          </mxGeometry>
        </mxCell>
        <mxCell id="qD96fWN0Pc6nH-I5lAnb-9" value="+5V" style="shape=partialRectangle;connectable=0;fillColor=none;top=0;left=0;bottom=0;right=0;align=left;spacingLeft=6;overflow=hidden;whiteSpace=wrap;html=1;" vertex="1" parent="qD96fWN0Pc6nH-I5lAnb-7">
          <mxGeometry x="30" width="63" height="30" as="geometry">
            <mxRectangle width="63" height="30" as="alternateBounds" />
          </mxGeometry>
        </mxCell>
        <mxCell id="qD96fWN0Pc6nH-I5lAnb-12" value="" style="shape=tableRow;horizontal=0;startSize=0;swimlaneHead=0;swimlaneBody=0;fillColor=none;collapsible=0;dropTarget=0;points=[[0,0.5],[1,0.5]];portConstraint=eastwest;top=0;left=0;right=0;bottom=0;" vertex="1" parent="qD96fWN0Pc6nH-I5lAnb-1">
          <mxGeometry y="80" width="93" height="30" as="geometry" />
        </mxCell>
        <mxCell id="qD96fWN0Pc6nH-I5lAnb-13" value="3" style="shape=partialRectangle;connectable=0;fillColor=none;top=0;left=0;bottom=0;right=0;editable=1;overflow=hidden;whiteSpace=wrap;html=1;" vertex="1" parent="qD96fWN0Pc6nH-I5lAnb-12">
          <mxGeometry width="30" height="30" as="geometry">
            <mxRectangle width="30" height="30" as="alternateBounds" />
          </mxGeometry>
        </mxCell>
        <mxCell id="qD96fWN0Pc6nH-I5lAnb-14" value="GND" style="shape=partialRectangle;connectable=0;fillColor=none;top=0;left=0;bottom=0;right=0;align=left;spacingLeft=6;overflow=hidden;whiteSpace=wrap;html=1;" vertex="1" parent="qD96fWN0Pc6nH-I5lAnb-12">
          <mxGeometry x="30" width="63" height="30" as="geometry">
            <mxRectangle width="63" height="30" as="alternateBounds" />
          </mxGeometry>
        </mxCell>
        <mxCell id="qD96fWN0Pc6nH-I5lAnb-17" value="" style="shape=tableRow;horizontal=0;startSize=0;swimlaneHead=0;swimlaneBody=0;fillColor=none;collapsible=0;dropTarget=0;points=[[0,0.5],[1,0.5]];portConstraint=eastwest;top=0;left=0;right=0;bottom=0;" vertex="1" parent="qD96fWN0Pc6nH-I5lAnb-1">
          <mxGeometry y="110" width="93" height="30" as="geometry" />
        </mxCell>
        <mxCell id="qD96fWN0Pc6nH-I5lAnb-18" value="2" style="shape=partialRectangle;connectable=0;fillColor=none;top=0;left=0;bottom=0;right=0;editable=1;overflow=hidden;whiteSpace=wrap;html=1;" vertex="1" parent="qD96fWN0Pc6nH-I5lAnb-17">
          <mxGeometry width="30" height="30" as="geometry">
            <mxRectangle width="30" height="30" as="alternateBounds" />
          </mxGeometry>
        </mxCell>
        <mxCell id="qD96fWN0Pc6nH-I5lAnb-19" value="GND" style="shape=partialRectangle;connectable=0;fillColor=none;top=0;left=0;bottom=0;right=0;align=left;spacingLeft=6;overflow=hidden;whiteSpace=wrap;html=1;" vertex="1" parent="qD96fWN0Pc6nH-I5lAnb-17">
          <mxGeometry x="30" width="63" height="30" as="geometry">
            <mxRectangle width="63" height="30" as="alternateBounds" />
          </mxGeometry>
        </mxCell>
        <mxCell id="qD96fWN0Pc6nH-I5lAnb-22" style="shape=tableRow;horizontal=0;startSize=0;swimlaneHead=0;swimlaneBody=0;fillColor=none;collapsible=0;dropTarget=0;points=[[0,0.5],[1,0.5]];portConstraint=eastwest;top=0;left=0;right=0;bottom=0;" vertex="1" parent="qD96fWN0Pc6nH-I5lAnb-1">
          <mxGeometry y="140" width="93" height="30" as="geometry" />
        </mxCell>
        <mxCell id="qD96fWN0Pc6nH-I5lAnb-23" value="1" style="shape=partialRectangle;connectable=0;top=0;left=0;bottom=0;right=0;editable=1;overflow=hidden;whiteSpace=wrap;html=1;fillColor=none;" vertex="1" parent="qD96fWN0Pc6nH-I5lAnb-22">
          <mxGeometry width="30" height="30" as="geometry">
            <mxRectangle width="30" height="30" as="alternateBounds" />
          </mxGeometry>
        </mxCell>
        <mxCell id="qD96fWN0Pc6nH-I5lAnb-24" value="+12V" style="shape=partialRectangle;connectable=0;fillColor=none;top=0;left=0;bottom=0;right=0;align=left;spacingLeft=6;overflow=hidden;whiteSpace=wrap;html=1;" vertex="1" parent="qD96fWN0Pc6nH-I5lAnb-22">
          <mxGeometry x="30" width="63" height="30" as="geometry">
            <mxRectangle width="63" height="30" as="alternateBounds" />
          </mxGeometry>
        </mxCell>
        <mxCell id="qD96fWN0Pc6nH-I5lAnb-107" value="" style="shape=link;html=1;rounded=0;" edge="1" parent="1" source="qD96fWN0Pc6nH-I5lAnb-1" target="m5U6jbmUyWmy_Dcwf7JY-25">
          <mxGeometry width="100" relative="1" as="geometry">
            <mxPoint x="1110" y="250" as="sourcePoint" />
            <mxPoint x="1207" y="530" as="targetPoint" />
            <Array as="points" />
          </mxGeometry>
        </mxCell>
        <mxCell id="qD96fWN0Pc6nH-I5lAnb-108" value="10V&lt;br&gt;9.1µF" style="shape=cylinder3;whiteSpace=wrap;html=1;boundedLbl=1;backgroundOutline=1;size=15;textDirection=vertical-rl;" vertex="1" parent="1">
          <mxGeometry x="1280" y="370" width="60" height="100" as="geometry" />
        </mxCell>
        <mxCell id="qD96fWN0Pc6nH-I5lAnb-109" value="" style="endArrow=none;html=1;rounded=0;exitX=0.145;exitY=1;exitDx=0;exitDy=-4.35;exitPerimeter=0;entryX=1;entryY=0.5;entryDx=0;entryDy=0;" edge="1" parent="1" source="qD96fWN0Pc6nH-I5lAnb-108" target="qD96fWN0Pc6nH-I5lAnb-7">
          <mxGeometry width="50" height="50" relative="1" as="geometry">
            <mxPoint x="1280" y="510" as="sourcePoint" />
            <mxPoint x="1060" y="620" as="targetPoint" />
            <Array as="points">
              <mxPoint x="1289" y="505" />
            </Array>
          </mxGeometry>
        </mxCell>
        <mxCell id="qD96fWN0Pc6nH-I5lAnb-110" value="" style="endArrow=none;html=1;rounded=0;exitX=0.855;exitY=1;exitDx=0;exitDy=-4.35;exitPerimeter=0;entryX=1;entryY=0.5;entryDx=0;entryDy=0;" edge="1" parent="1" source="qD96fWN0Pc6nH-I5lAnb-108" target="qD96fWN0Pc6nH-I5lAnb-12">
          <mxGeometry width="50" height="50" relative="1" as="geometry">
            <mxPoint x="1325" y="480" as="sourcePoint" />
            <mxPoint x="1270" y="519" as="targetPoint" />
            <Array as="points">
              <mxPoint x="1331" y="535" />
            </Array>
          </mxGeometry>
        </mxCell>
      </root>
    </mxGraphModel>
  </diagram>
</mxfile>
